<?xml version="1.0" encoding="UTF-8"?>
<mxfile host="app.diagrams.net">
  <diagram name="Sistema Médico - Casos de Uso" id="UMLSistemaMedicoCitas">
    <mxGraphModel dx="1485" dy="878" grid="1" gridSize="10" guides="1" tooltips="1" connect="1" arrows="1" fold="1" page="1" pageScale="1" pageWidth="827" pageHeight="1169" math="0" shadow="0">
      <root>
        <mxCell id="0" />
        <mxCell id="1" parent="0" />

        <!-- Actores -->
        <mxCell id="paciente" value="Paciente" style="shape=uml.actor;verticalLabelPosition=bottom;verticalAlign=top;" vertex="1" parent="1">
          <mxGeometry x="80" y="100" width="30" height="60" as="geometry" />
        </mxCell>
        <mxCell id="recepcionista" value="Recepcionista" style="shape=uml.actor;verticalLabelPosition=bottom;verticalAlign=top;" vertex="1" parent="1">
          <mxGeometry x="80" y="300" width="30" height="60" as="geometry" />
        </mxCell>
        <mxCell id="medico" value="Médico" style="shape=uml.actor;verticalLabelPosition=bottom;verticalAlign=top;" vertex="1" parent="1">
          <mxGeometry x="80" y="500" width="30" height="60" as="geometry" />
        </mxCell>
        <mxCell id="admin" value="Administrador" style="shape=uml.actor;verticalLabelPosition=bottom;verticalAlign=top;" vertex="1" parent="1">
          <mxGeometry x="80" y="700" width="30" height="60" as="geometry" />
        </mxCell>

        <!-- Sistema -->
        <mxCell id="sistema" value="Sistema de Gestión Médica" style="swimlane;childLayout=stackLayout;horizontal=1;startSize=20;" vertex="1" parent="1">
          <mxGeometry x="200" y="50" width="600" height="800" as="geometry" />
        </mxCell>

        <!-- Casos de uso (Paciente) -->
        <mxCell id="registrarse" value="Registrarse" style="ellipse;whiteSpace=wrap;html=1;" vertex="1" parent="sistema">
          <mxGeometry x="40" y="30" width="120" height="50" as="geometry" />
        </mxCell>
        <mxCell id="login" value="Iniciar sesión" style="ellipse;whiteSpace=wrap;html=1;" vertex="1" parent="sistema">
          <mxGeometry x="40" y="90" width="120" height="50" as="geometry" />
        </mxCell>
        <mxCell id="consultarDisponibilidad" value="Consultar disponibilidad" style="ellipse;whiteSpace=wrap;html=1;" vertex="1" parent="sistema">
          <mxGeometry x="40" y="150" width="160" height="50" as="geometry" />
        </mxCell>
        <mxCell id="solicitarCita" value="Solicitar cita" style="ellipse;whiteSpace=wrap;html=1;" vertex="1" parent="sistema">
          <mxGeometry x="240" y="150" width="120" height="50" as="geometry" />
        </mxCell>
        <mxCell id="cancelarCita" value="Cancelar cita" style="ellipse;whiteSpace=wrap;html=1;" vertex="1" parent="sistema">
          <mxGeometry x="240" y="210" width="120" height="50" as="geometry" />
        </mxCell>

        <!-- Relaciones paciente -->
        <mxCell id="rel1" style="endArrow=none;" edge="1" parent="1" source="paciente" target="registrarse">
          <mxGeometry relative="1" as="geometry" />
        </mxCell>
        <mxCell id="rel2" style="endArrow=none;" edge="1" parent="1" source="paciente" target="login">
          <mxGeometry relative="1" as="geometry" />
        </mxCell>
        <mxCell id="rel3" style="endArrow=none;" edge="1" parent="1" source="paciente" target="consultarDisponibilidad">
          <mxGeometry relative="1" as="geometry" />
        </mxCell>
        <mxCell id="rel4" style="endArrow=none;" edge="1" parent="1" source="paciente" target="solicitarCita">
          <mxGeometry relative="1" as="geometry" />
        </mxCell>
        <mxCell id="rel5" style="endArrow=none;" edge="1" parent="1" source="paciente" target="cancelarCita">
          <mxGeometry relative="1" as="geometry" />
        </mxCell>

      </root>
    </mxGraphModel>
  </diagram>
</mxfile>
